<?xml version="1.0" encoding="UTF-8" standalone="no"?>
<!-- Created with Inkscape (http://www.inkscape.org/) -->

<svg
   xmlns:dc="http://purl.org/dc/elements/1.1/"
   xmlns:cc="http://creativecommons.org/ns#"
   xmlns:rdf="http://www.w3.org/1999/02/22-rdf-syntax-ns#"
   xmlns:svg="http://www.w3.org/2000/svg"
   xmlns="http://www.w3.org/2000/svg"
   xmlns:sodipodi="http://sodipodi.sourceforge.net/DTD/sodipodi-0.dtd"
   xmlns:inkscape="http://www.inkscape.org/namespaces/inkscape"
   id="svg1247"
   sodipodi:version="0.32"
   inkscape:version="0.92.2 2405546, 2018-03-11"
   width="120.00000pt"
   height="120.00000pt"
   sodipodi:docname="Lemonade_Glass_clip_art.svg"
   version="1.1">
  <metadata
     id="metadata30" />
  <defs
     id="defs1249" />
  <sodipodi:namedview
     id="base"
     pagecolor="#ffffff"
     bordercolor="#666666"
     borderopacity="1.0"
     inkscape:pageopacity="0.0"
     inkscape:pageshadow="2"
     inkscape:zoom="2.8284271"
     inkscape:cx="-11.389534"
     inkscape:cy="60.518793"
     inkscape:window-width="1920"
     inkscape:window-height="1028"
     inkscape:window-x="0"
     inkscape:window-y="26"
     showgrid="false"
     inkscape:window-maximized="1"
     inkscape:current-layer="svg1247" />
  <g
     id="g849"
     transform="translate(-286.2500,-42.50000)"
     style="stroke:#005200;stroke-opacity:1">
    <path
       style="fill:#7573ae;fill-opacity:0.14901961;fill-rule:evenodd;stroke:#005200;stroke-width:2.5;stroke-linejoin:round;stroke-dasharray:none;stroke-opacity:1"
       d="M 374.53487,179.90825 C 374.53487,183.78868 365.51467,186.93801 354.40049,186.93801 C 343.28631,186.93801 334.26611,183.78868 334.26611,179.90825 C 334.26611,176.02782 343.28631,172.87849 354.40049,172.87849 C 365.51467,172.87849 374.53487,176.02782 374.53487,179.90825 z "
       id="path1253" />
    <path
       style="fill:#5e73ae;fill-opacity:0.15000001;fill-rule:evenodd;stroke:#005200;stroke-width:2.5;stroke-linejoin:round;stroke-dasharray:none;stroke-opacity:1"
       d="M 380.82020,90.741510 C 380.82020,95.057450 368.04798,98.560230 352.31078,98.560230 C 336.57359,98.560230 323.80137,95.057450 323.80137,90.741510 C 323.80137,86.425570 336.57359,82.922780 352.31078,82.922780 C 368.04798,82.922780 380.82020,86.425570 380.82020,90.741510 z "
       id="path1252" />
    <path
       style="fill:#7573ae;fill-opacity:0.14999999;fill-rule:evenodd;stroke:#005200;stroke-width:2.5;stroke-linejoin:round;stroke-dasharray:none;stroke-opacity:1"
       d="M 323.80137,90.907860 L 334.24985,180.74003 C 334.54838,183.40172 343.20569,187.72697 355.74386,187.06155 C 364.10264,186.06341 368.87909,186.72883 374.55112,180.74003 C 375.14817,179.40918 380.60435,91.431670 380.60435,91.431670 C 378.51466,95.424210 367.08792,98.560230 353.05711,98.892940 C 339.62335,98.892940 323.80137,94.900400 323.80137,90.907860 z "
       id="path1254"
       sodipodi:nodetypes="ccccccc" />
    <path
       style="fill:#ffffff;fill-rule:evenodd;stroke:none;stroke-opacity:1;stroke-width:1pt;stroke-linejoin:miter;stroke-linecap:butt;fill-opacity:0.5"
       d="M 325.93750,95.212654 C 326.76219,95.418827 340.12577,100.63148 343.95617,99.288115 C 345.51867,98.975615 348.31821,182.48704 347.91883,185.08040 C 343.60215,185.19969 339.12994,183.71760 335.62500,180.62500 L 325.93750,95.212654 z "
       id="path1273"
       sodipodi:nodetypes="ccccc" />
  </g>

</svg>
